<svg width="24" height="24" viewBox="0 0 24 24" fill="none" xmlns="http://www.w3.org/2000/svg">
<path d="M23.0978 16.7662L17.1952 14.1249C16.9664 14.0258 16.7165 13.9854 16.4682 14.0072C16.2198 14.0291 15.9808 14.1125 15.7727 14.2499C15.7561 14.2604 15.7402 14.2721 15.7252 14.2849L12.6252 16.9274C12.5562 16.9695 12.4779 16.9939 12.3972 16.9985C12.3165 17.003 12.236 16.9877 12.1627 16.9537C10.1327 15.9736 8.03137 13.8886 7.05136 11.8823C7.01669 11.8096 7.0006 11.7294 7.00453 11.6489C7.00846 11.5684 7.03228 11.4901 7.07386 11.4211L9.7239 8.26981C9.7364 8.25481 9.74765 8.23856 9.7589 8.22231C9.89589 8.01456 9.97904 7.77599 10.0009 7.5281C10.0227 7.28021 9.98249 7.03078 9.8839 6.80229L7.23761 0.909726C7.10986 0.61128 6.88873 0.362336 6.60744 0.200275C6.32614 0.0382148 5.99986 -0.0282135 5.67759 0.0109659C4.10453 0.218368 2.66076 0.991306 1.61595 2.18541C0.571132 3.37951 -0.00327498 4.91312 1.40467e-05 6.49979C1.40467e-05 16.1499 7.85012 24 17.5003 24C19.0869 24.0033 20.6205 23.4289 21.8146 22.3841C23.0088 21.3392 23.7817 19.8955 23.9891 18.3224C24.028 18.0016 23.9622 17.6768 23.8017 17.3964C23.6411 17.116 23.3942 16.8949 23.0978 16.7662ZM23.0003 18.1974C22.8238 19.5296 22.1681 20.7519 21.1559 21.6358C20.1436 22.5197 18.8441 23.0046 17.5003 23C8.40263 23 1.00003 15.5974 1.00003 6.49979C0.995372 5.15596 1.48032 3.85643 2.3642 2.84418C3.24809 1.83192 4.47039 1.17624 5.80259 0.999727C5.82258 0.998526 5.84261 0.998526 5.8626 0.999727C5.96124 1.00057 6.05743 1.03057 6.13906 1.08595C6.22069 1.14134 6.28412 1.21963 6.32135 1.31098L8.96014 7.20355C8.99093 7.27556 9.00436 7.35381 8.99937 7.43197C8.99438 7.51014 8.97109 7.58604 8.93139 7.65355L6.2826 10.8036C6.2701 10.8198 6.2576 10.8348 6.24635 10.8523C6.10523 11.0681 6.02212 11.3167 6.00505 11.5739C5.98797 11.8312 6.0375 12.0885 6.14885 12.3211C7.23511 14.5449 9.47514 16.7687 11.7239 17.8549C11.9581 17.9655 12.2169 18.0137 12.4751 17.9946C12.7334 17.9756 12.9823 17.89 13.1977 17.7462L13.2439 17.7112L16.3477 15.0711C16.4141 15.0306 16.4892 15.0064 16.5668 15.0005C16.6444 14.9946 16.7223 15.0073 16.794 15.0374L22.6953 17.6824C22.7949 17.7239 22.8784 17.7964 22.9334 17.8892C22.9884 17.9821 23.0118 18.0902 23.0003 18.1974Z" fill="black"/>
</svg>
