<svg width="24" height="18" viewBox="0 0 24 18" fill="none" xmlns="http://www.w3.org/2000/svg">
<path d="M0.631579 0.6V0C0.464074 0 0.303429 0.0632142 0.184985 0.175736C0.0665413 0.288258 0 0.44087 0 0.6H0.631579ZM23.3684 0.6H24C24 0.44087 23.9335 0.288258 23.815 0.175736C23.6966 0.0632142 23.5359 0 23.3684 0V0.6ZM0.631579 1.2H23.3684V0H0.631579V1.2ZM22.7368 0.6V15H24V0.6H22.7368ZM20.8421 16.8H3.15789V18H20.8421V16.8ZM1.26316 15V0.6H0V15H1.26316ZM3.15789 16.8C2.65538 16.8 2.17345 16.6104 1.81811 16.2728C1.46278 15.9352 1.26316 15.4774 1.26316 15H0C0 15.7957 0.332706 16.5587 0.924926 17.1213C1.51715 17.6839 2.32037 18 3.15789 18V16.8ZM22.7368 15C22.7368 15.4774 22.5372 15.9352 22.1819 16.2728C21.8266 16.6104 21.3446 16.8 20.8421 16.8V18C21.6796 18 22.4829 17.6839 23.0751 17.1213C23.6673 16.5587 24 15.7957 24 15H22.7368Z" fill="black"/>
<path d="M0.635742 0.599609L12.0042 11.3996L23.3726 0.599609" stroke="black" stroke-linecap="round" stroke-linejoin="round"/>
</svg>
